<svg xmlns="http://www.w3.org/2000/svg" viewBox="0 0 162.16 24.43"><defs><style>.cls-1{fill:#fff;}.cls-2{fill:#3cbeee;}</style></defs><title>Asset 7</title><g id="Layer_2" data-name="Layer 2"><g id="Layer_1-2" data-name="Layer 1"><path class="cls-1" d="M59.34,22.19a9.13,9.13,0,0,0,2.31-.31v2a4.68,4.68,0,0,1-1.23.33A9.21,9.21,0,0,1,59,24.3q-4.9,0-4.9-5.17V9.08H51.64V7.85l2.42-1.06,1.08-3.61h1.48V7.09h4.9v2h-4.9V19a3.42,3.42,0,0,0,.72,2.34A2.52,2.52,0,0,0,59.34,22.19Z"/><path class="cls-1" d="M72.17,24.3A7.76,7.76,0,0,1,66.25,22a8.83,8.83,0,0,1-2.17-6.34,9.8,9.8,0,0,1,2-6.49,6.68,6.68,0,0,1,5.4-2.41,6.37,6.37,0,0,1,5,2.09,8,8,0,0,1,1.85,5.51V16H66.74a6.7,6.7,0,0,0,1.5,4.52,5.2,5.2,0,0,0,4,1.54,13.61,13.61,0,0,0,5.4-1.14V23.2a13.56,13.56,0,0,1-2.57.84A14.45,14.45,0,0,1,72.17,24.3ZM71.47,8.93a4.18,4.18,0,0,0-3.25,1.33,6.11,6.11,0,0,0-1.43,3.67h8.83a5.63,5.63,0,0,0-1.08-3.71A3.8,3.8,0,0,0,71.47,8.93Z"/><path class="cls-1" d="M93.14,24l-.51-2.41H92.5A7.11,7.11,0,0,1,90,23.74a7.69,7.69,0,0,1-3.14.56A5.64,5.64,0,0,1,82.91,23a4.72,4.72,0,0,1-1.43-3.69q0-5.12,8.19-5.37l2.87-.09v-1a4.28,4.28,0,0,0-.86-2.94,3.52,3.52,0,0,0-2.74-.95,11.15,11.15,0,0,0-4.78,1.29l-.79-2A12,12,0,0,1,86.11,7.2a11.86,11.86,0,0,1,3-.39,6.44,6.44,0,0,1,4.48,1.34A5.6,5.6,0,0,1,95,12.46V24Zm-5.78-1.8a5.2,5.2,0,0,0,3.75-1.31,4.85,4.85,0,0,0,1.36-3.67V15.68l-2.56.11a9.31,9.31,0,0,0-4.4.95,2.86,2.86,0,0,0-1.35,2.61A2.64,2.64,0,0,0,85,21.46,3.48,3.48,0,0,0,87.35,22.19Z"/><path class="cls-1" d="M107.06,24.3A7.21,7.21,0,0,1,101.38,22a9.29,9.29,0,0,1-2-6.39,9.58,9.58,0,0,1,2-6.55,7.35,7.35,0,0,1,5.82-2.31,11.57,11.57,0,0,1,2.44.26,8,8,0,0,1,1.91.62l-.79,2.17a12,12,0,0,0-1.85-.56,8.26,8.26,0,0,0-1.77-.22q-5.15,0-5.15,6.57a7.82,7.82,0,0,0,1.26,4.78A4.37,4.37,0,0,0,107,22.06a11.38,11.38,0,0,0,4.33-.91v2.27A9.23,9.23,0,0,1,107.06,24.3Z"/><path class="cls-1" d="M126.9,24V13.06A4.41,4.41,0,0,0,126,10,3.83,3.83,0,0,0,123,9a4.82,4.82,0,0,0-3.89,1.45q-1.23,1.45-1.23,4.75V24h-2.56V0h2.56V7.26a15.84,15.84,0,0,1-.12,2.17h.15a5.22,5.22,0,0,1,2.15-1.92,7,7,0,0,1,3.18-.7,6.52,6.52,0,0,1,4.65,1.47q1.55,1.47,1.55,4.68V24Z"/><path class="cls-1" d="M141.86,24.3A7.76,7.76,0,0,1,135.95,22a8.83,8.83,0,0,1-2.17-6.34,9.8,9.8,0,0,1,2-6.49,6.68,6.68,0,0,1,5.4-2.41,6.37,6.37,0,0,1,5,2.09,8,8,0,0,1,1.85,5.51V16H136.43a6.7,6.7,0,0,0,1.5,4.52,5.2,5.2,0,0,0,4,1.54,13.61,13.61,0,0,0,5.4-1.14V23.2a13.56,13.56,0,0,1-2.57.84A14.45,14.45,0,0,1,141.86,24.3Zm-.69-15.37a4.18,4.18,0,0,0-3.25,1.33,6.11,6.11,0,0,0-1.43,3.67h8.83a5.63,5.63,0,0,0-1.08-3.71A3.8,3.8,0,0,0,141.16,8.93Z"/><path class="cls-1" d="M160.14,6.78a10,10,0,0,1,2,.19l-.35,2.37A8.71,8.71,0,0,0,160,9.11a4.5,4.5,0,0,0-3.51,1.67A6.07,6.07,0,0,0,155,14.92V24h-2.56V7.09h2.11l.29,3.13H155a7.43,7.43,0,0,1,2.27-2.54A5.1,5.1,0,0,1,160.14,6.78Z"/><path class="cls-2" d="M34.37,8c-2,0-4,0-6.07,0-3.07,0-4.79,1.66-4.89,4.74,0,1.52,0,3,0,4.55s0,3,0,4.55c0,1.7.71,2.58,1.93,2.54s1.8-.87,1.81-2.49c0-2.73,0-5.46,0-8.19,0-1.67.36-2,2.07-2s3.44,0,5.16,0c1.27,0,2.14-.53,2.12-1.82S35.64,8,34.37,8Z"/><path class="cls-2" d="M13.06,12.35A4.28,4.28,0,0,0,8.54,8C6.42,8,4.29,8,2.17,8,.9,8,.05,8.61,0,9.86s.81,1.86,2.08,1.85c1.77,0,3.54,0,5.31,0,1.42,0,2,.58,2,2-.06,2.83,0,5.66,0,8.5,0,1.21.46,2.09,1.78,2.21,1.14.1,1.9-.75,1.93-2.2,0-1.62,0-3.24,0-4.85h0C13.08,15.69,13.15,14,13.06,12.35Z"/><path class="cls-2" d="M34.1,4.38c1.62,0,2.44-.66,2.41-1.87S35.66.71,34,.7c-2.23,0-4.46.06-6.68,0A10.34,10.34,0,0,0,18.27,5,10.1,10.1,0,0,0,10.54.73C7.76.64,5,.73,2.19.7A1.87,1.87,0,0,0,0,2.51C-.1,3.64.79,4.35,2.26,4.37c2,0,4.05,0,6.08,0,4.57,0,7.07,2,8.08,6.37,0-.51.08-1,.16-1.5-.08.49-.12,1-.16,1.5,0,3.75,0,7.5,0,11.24,0,1.67.6,2.44,1.82,2.44s1.8-.78,1.81-2.45c0-3.75,0-7.5,0-11.24,1-4.4,3.52-6.35,8.1-6.36C30.15,4.38,32.13,4.39,34.1,4.38Zm-17,2.73a9,9,0,0,0-.42,1.41,9,9,0,0,1,.42-1.41,7.1,7.1,0,0,1,.69-1.32A7.1,7.1,0,0,0,17.14,7.11Z"/></g></g></svg>