<?xml version="1.0" encoding="UTF-8" standalone="no"?>
<svg width="476px" height="216px" viewBox="0 0 476 216" version="1.1" xmlns="http://www.w3.org/2000/svg" xmlns:xlink="http://www.w3.org/1999/xlink">
    <!-- Generator: Sketch 41.2 (35397) - http://www.bohemiancoding.com/sketch -->
    <title>404</title>
    <desc>Created with Sketch.</desc>
    <defs></defs>
    <g id="Page-1" stroke="none" stroke-width="1" fill="none" fill-rule="evenodd">
        <g id="A.Page-404-Notfound" transform="translate(-475.000000, -284.000000)">
            <g id="404" transform="translate(475.000000, 284.000000)">
                <text id="Page-Not-Found!" font-family="HiraginoSans-W4, Hiragino Sans" font-size="24" font-weight="normal" fill="#4A4A4A">
                    <tspan x="145" y="211">Page Not Found!</tspan>
                </text>
                <path d="M87.8631885,144.109839 L0,144.109839 L0,104.441149 L87.8631885,0 L129.900159,0 L129.900159,106.691015 L151.688335,106.691015 L151.688335,144.109839 L129.900159,144.109839 L129.900159,176.555275 L87.8631885,176.555275 L87.8631885,144.109839 Z M87.8631885,106.691015 L87.8631885,52.1021603 L41.4449002,106.691015 L87.8631885,106.691015 Z M166.726913,89.0473285 C166.726913,56.0491287 172.667289,32.9586294 184.54822,19.7751381 C196.429151,6.59164679 214.526576,0 238.841039,0 C250.524612,0 260.116051,1.44068927 267.615641,4.32211102 C275.115232,7.20353278 281.233228,10.953272 285.969812,15.5714411 C290.706395,20.1896102 294.436399,25.0445357 297.159935,30.1363632 C299.88347,35.2281907 302.074107,41.168567 303.731912,47.9576703 C306.968577,60.9043324 308.586886,74.4033935 308.586886,88.4552585 C308.586886,119.95354 303.258309,143.004568 292.600996,157.609035 C281.943682,172.213501 263.589696,179.515625 237.538485,179.515625 C222.934019,179.515625 211.132208,177.18684 202.132699,172.529199 C193.13319,167.871558 185.752125,161.043086 179.989281,152.043577 C175.805299,145.649189 172.548946,136.906376 170.220126,125.814876 C167.891306,114.723376 166.726913,102.467649 166.726913,89.0473285 Z M214.566169,89.1657425 C214.566169,111.2698 216.519981,126.367434 220.427662,134.459098 C224.335344,142.550762 229.999424,146.596533 237.420071,146.596533 C242.314541,146.596533 246.557667,144.879547 250.149576,141.445524 C253.741486,138.011501 256.386039,132.584247 258.083314,125.163599 C259.78059,117.742951 260.629215,106.177966 260.629215,90.4682965 C260.629215,67.4169225 258.675404,51.924579 254.767722,43.9908012 C250.860041,36.0570235 244.998606,32.0901942 237.183243,32.0901942 C229.209994,32.0901942 223.447237,36.1359654 219.894799,44.2276292 C216.342361,52.3192931 214.566169,67.2985144 214.566169,89.1657425 Z M411.370238,144.109839 L323.50705,144.109839 L323.50705,104.441149 L411.370238,0 L453.407209,0 L453.407209,106.691015 L475.195385,106.691015 L475.195385,144.109839 L453.407209,144.109839 L453.407209,176.555275 L411.370238,176.555275 L411.370238,144.109839 Z M411.370238,106.691015 L411.370238,52.1021603 L364.95195,106.691015 L411.370238,106.691015 Z" fill="#F26D7D"></path>
                <g id="owl" transform="translate(169.000000, 20.000000)">
                    <g id="Layer_1">
                        <path d="M117.639502,115.935669 L117.639502,115.935669 C105.910327,114.469625 96.5271514,97.4623625 96.5271514,76.350012 C96.5271514,64.3277928 99.4595139,53.7716175 104.444283,46.4408486 C95.3541514,33.5389482 82.7455697,25.328498 68.9637131,25.328498 C55.1818566,25.328498 42.5732749,33.5389482 33.4831434,46.4408486 C38.1748685,53.7716175 41.4002749,64.3277928 41.4002749,76.350012 C41.4002749,97.1690438 32.0170996,114.176307 20.2879243,115.642351 L20.2879243,115.642351 L117.639227,115.642351 L117.639227,115.935669 L117.639502,115.935669 Z" id="Shape" fill="#FEC656"></path>
                        <g id="Group" transform="translate(30.513944, 59.928287)" fill="#EF9F2C">
                            <path d="M14.9916932,31.3763068 C10.8866056,31.3763068 8.24756175,25.8049004 7.6609243,25.2185378 L10.0066494,23.4591753 C10.593012,24.9252191 12.939012,28.1509004 14.9914183,28.1509004 C16.7507809,28.1509004 18.2168247,25.2185378 19.096506,22.8728127 L21.4422311,24.3388566 C19.6834183,29.0303068 17.6307371,31.3763068 14.9916932,31.3763068 L14.9916932,31.3763068 Z" id="Shape"></path>
                            <path d="M30.2395936,31.3763068 C26.134506,31.3763068 23.4954622,25.8049004 22.9088247,25.2185378 L25.2545498,23.4591753 C25.8409124,24.9252191 28.1869124,28.1509004 30.2393187,28.1509004 C31.9986813,28.1509004 33.4647251,25.2185378 34.3444064,22.8728127 L36.6901315,24.3388566 C34.9310438,29.0303068 32.8786375,31.3763068 30.2395936,31.3763068 L30.2395936,31.3763068 Z" id="Shape"></path>
                            <path d="M45.4872191,31.3763068 C41.3821315,31.3763068 38.7430876,25.8049004 38.1564502,25.2185378 L40.5021753,23.4591753 C41.0885378,24.9252191 43.4345378,28.1509004 45.4869442,28.1509004 C47.2463068,28.1509004 48.7123506,25.2185378 49.5920319,22.8728127 L51.937757,24.3388566 C50.1789442,29.0303068 48.1262629,31.3763068 45.4872191,31.3763068 L45.4872191,31.3763068 Z" id="Shape"></path>
                            <path d="M60.7351195,31.3763068 C56.6300319,31.3763068 53.990988,25.8049004 53.4043506,25.2185378 L55.7500757,23.4591753 C56.3364382,24.9252191 58.6824382,28.1509004 60.7348446,28.1509004 C62.4942072,28.1509004 63.960251,25.2185378 64.8399323,22.8728127 L67.1856574,24.3388566 C65.4268446,29.0303068 63.3741633,31.3763068 60.7351195,31.3763068 L60.7351195,31.3763068 Z" id="Shape"></path>
                            <path d="M7.36788048,20.5268127 C3.26279283,20.5268127 0.623749004,14.9554064 0.0371115538,14.3690438 L2.38283665,12.6096813 C2.9691992,14.0757251 5.3151992,17.3014064 7.36760558,17.3014064 C9.12696813,17.3014064 10.593012,14.3690438 11.4726932,12.0233187 L13.8184183,13.4893625 C12.0593307,18.1810876 10.0069243,20.5268127 7.36788048,20.5268127 L7.36788048,20.5268127 Z" id="Shape"></path>
                            <path d="M22.615506,20.5268127 C18.5104183,20.5268127 15.8713745,14.9554064 15.2847371,14.3690438 L17.6304622,12.6096813 C18.2168247,14.0757251 20.5628247,17.3014064 22.6152311,17.3014064 C24.3745936,17.3014064 25.8406375,14.3690438 26.7203187,12.0233187 L29.0660438,13.4893625 C27.3072311,18.1810876 25.2545498,20.5268127 22.615506,20.5268127 L22.615506,20.5268127 Z" id="Shape"></path>
                            <path d="M37.8634064,20.5268127 C33.7583187,20.5268127 31.1192749,14.9554064 30.5326375,14.3690438 L32.8783625,12.6096813 C33.4647251,14.0757251 35.8107251,17.3014064 37.8631315,17.3014064 C39.622494,17.3014064 41.0885378,14.3690438 41.9682191,12.0233187 L44.3139442,13.4893625 C42.5551315,18.1810876 40.5024502,20.5268127 37.8634064,20.5268127 L37.8634064,20.5268127 Z" id="Shape"></path>
                            <path d="M53.1113068,20.5268127 C49.0062191,20.5268127 46.3671753,14.9554064 45.7805378,14.3690438 L48.1262629,12.6096813 C48.7126255,14.0757251 51.0586255,17.3014064 53.1110319,17.3014064 C54.8703944,17.3014064 56.3364382,14.3690438 57.2161195,12.0233187 L59.5618446,13.4893625 C57.802757,18.1810876 55.7503506,20.5268127 53.1113068,20.5268127 L53.1113068,20.5268127 Z" id="Shape"></path>
                            <path d="M68.3589323,20.5268127 C64.2538446,20.5268127 61.6148008,14.9554064 61.0281633,14.3690438 L63.3738884,12.6096813 C63.960251,14.0757251 66.306251,17.3014064 68.3586574,17.3014064 C70.1180199,17.3014064 71.5840637,14.3690438 72.463745,12.0233187 L74.8094701,13.4893625 C73.0506574,18.1810876 70.9979761,20.5268127 68.3589323,20.5268127 L68.3589323,20.5268127 Z" id="Shape"></path>
                            <path d="M14.9916932,54.5410637 C10.8866056,54.5410637 8.24756175,48.9696574 7.6609243,48.3832948 L10.0066494,46.6239323 C10.593012,48.0899761 12.939012,51.3156574 14.9914183,51.3156574 C16.7507809,51.3156574 18.2168247,48.3832948 19.096506,46.0375697 L21.4422311,47.5036135 C19.6834183,52.1953386 17.6307371,54.5410637 14.9916932,54.5410637 L14.9916932,54.5410637 Z" id="Shape"></path>
                            <path d="M30.2395936,54.5410637 C26.134506,54.5410637 23.4954622,48.9696574 22.9088247,48.3832948 L25.2545498,46.6239323 C25.8409124,48.0899761 28.1869124,51.3156574 30.2393187,51.3156574 C31.9986813,51.3156574 33.4647251,48.3832948 34.3444064,46.0375697 L36.6901315,47.5036135 C34.9310438,52.1953386 32.8786375,54.5410637 30.2395936,54.5410637 L30.2395936,54.5410637 Z" id="Shape"></path>
                            <path d="M45.4872191,54.5410637 C41.3821315,54.5410637 38.7430876,48.9696574 38.1564502,48.3832948 L40.5021753,46.6239323 C41.0885378,48.0899761 43.4345378,51.3156574 45.4869442,51.3156574 C47.2463068,51.3156574 48.7123506,48.3832948 49.5920319,46.0375697 L51.937757,47.5036135 C50.1789442,52.1953386 48.1262629,54.5410637 45.4872191,54.5410637 L45.4872191,54.5410637 Z" id="Shape"></path>
                            <path d="M60.7351195,54.5410637 C56.6300319,54.5410637 53.990988,48.9696574 53.4043506,48.3832948 L55.7500757,46.6239323 C56.3364382,48.0899761 58.6824382,51.3156574 60.7348446,51.3156574 C62.4942072,51.3156574 63.960251,48.3832948 64.8399323,46.0375697 L67.1856574,47.5036135 C65.4268446,52.1953386 63.3741633,54.5410637 60.7351195,54.5410637 L60.7351195,54.5410637 Z" id="Shape"></path>
                            <path d="M14.9916932,8.50459363 C10.8866056,8.50459363 8.24756175,2.93318725 7.6609243,2.3468247 L10.0066494,0.587462151 C10.593012,2.05350598 12.939012,5.27918725 14.9914183,5.27918725 C16.7507809,5.27918725 18.2168247,2.3468247 19.096506,0.0010996016 L21.4422311,1.46714343 C19.6834183,6.15859363 17.6307371,8.50459363 14.9916932,8.50459363 L14.9916932,8.50459363 Z" id="Shape"></path>
                            <path d="M30.2395936,8.50459363 C26.134506,8.50459363 23.4954622,2.93318725 22.9088247,2.3468247 L25.2545498,0.587462151 C25.8409124,2.05350598 28.1869124,5.27918725 30.2393187,5.27918725 C31.9986813,5.27918725 33.4647251,2.3468247 34.3444064,0.0010996016 L36.6901315,1.46714343 C34.9310438,6.15859363 32.8786375,8.50459363 30.2395936,8.50459363 L30.2395936,8.50459363 Z" id="Shape"></path>
                            <path d="M45.4872191,8.50459363 C41.3821315,8.50459363 38.7430876,2.93318725 38.1564502,2.3468247 L40.5021753,0.587462151 C41.0885378,2.05350598 43.4345378,5.27918725 45.4869442,5.27918725 C47.2463068,5.27918725 48.7123506,2.3468247 49.5920319,0.0010996016 L51.937757,1.46714343 C50.1789442,6.15859363 48.1262629,8.50459363 45.4872191,8.50459363 L45.4872191,8.50459363 Z" id="Shape"></path>
                            <path d="M60.7351195,8.50459363 C56.6300319,8.50459363 53.990988,2.93318725 53.4043506,2.3468247 L55.7500757,0.587462151 C56.3364382,2.05350598 58.6824382,5.27918725 60.7348446,5.27918725 C62.4942072,5.27918725 63.960251,2.3468247 64.8399323,0.0010996016 L67.1856574,1.46714343 C65.4268446,6.15859363 63.3741633,8.50459363 60.7351195,8.50459363 L60.7351195,8.50459363 Z" id="Shape"></path>
                            <path d="M7.36788048,43.6918446 C3.26279283,43.6918446 0.623749004,38.1204382 0.0371115538,37.5340757 L2.38283665,35.7747131 C2.9691992,37.240757 5.3151992,40.4664382 7.36760558,40.4664382 C9.12696813,40.4664382 10.593012,37.5340757 11.4726932,35.1883506 L13.8184183,36.6543944 C12.0593307,41.3458446 10.0069243,43.6918446 7.36788048,43.6918446 L7.36788048,43.6918446 Z" id="Shape"></path>
                            <path d="M22.615506,43.6918446 C18.5104183,43.6918446 15.8713745,38.1204382 15.2847371,37.5340757 L17.6304622,35.7747131 C18.2168247,37.240757 20.5628247,40.4664382 22.6152311,40.4664382 C24.3745936,40.4664382 25.8406375,37.5340757 26.7203187,35.1883506 L29.0660438,36.6543944 C27.3072311,41.3458446 25.2545498,43.6918446 22.615506,43.6918446 L22.615506,43.6918446 Z" id="Shape"></path>
                            <path d="M37.8634064,43.6918446 C33.7583187,43.6918446 31.1192749,38.1204382 30.5326375,37.5340757 L32.8783625,35.7747131 C33.4647251,37.240757 35.8107251,40.4664382 37.8631315,40.4664382 C39.622494,40.4664382 41.0885378,37.5340757 41.9682191,35.1883506 L44.3139442,36.6543944 C42.5551315,41.3458446 40.5024502,43.6918446 37.8634064,43.6918446 L37.8634064,43.6918446 Z" id="Shape"></path>
                            <path d="M53.1113068,43.6918446 C49.0062191,43.6918446 46.3671753,38.1204382 45.7805378,37.5340757 L48.1262629,35.7747131 C48.7126255,37.240757 51.0586255,40.4664382 53.1110319,40.4664382 C54.8703944,40.4664382 56.3364382,37.5340757 57.2161195,35.1883506 L59.5618446,36.6543944 C57.802757,41.3458446 55.7503506,43.6918446 53.1113068,43.6918446 L53.1113068,43.6918446 Z" id="Shape"></path>
                            <path d="M68.3589323,43.6918446 C64.2538446,43.6918446 61.6148008,38.1204382 61.0281633,37.5340757 L63.3738884,35.7747131 C63.960251,37.240757 66.306251,40.4664382 68.3586574,40.4664382 C70.1180199,40.4664382 71.5840637,37.5340757 72.463745,35.1883506 L74.8094701,36.6543944 C73.0506574,41.3458446 70.9979761,43.6918446 68.3589323,43.6918446 L68.3589323,43.6918446 Z" id="Shape"></path>
                        </g>
                        <g id="Group" transform="translate(18.693227, 46.183267)" fill="#3F3333">
                            <path d="M22.7073227,30.166745 C22.7073227,18.1445259 19.7749602,7.5883506 14.7901912,0.257581673 C5.70005976,13.4528008 0.128928287,31.339745 0.128928287,51.2790956 C0.128928287,57.4368645 0.715290837,63.5946335 1.88829084,69.4590837 C13.3238725,67.9930398 22.7073227,50.9857769 22.7073227,30.166745 Z" id="Shape"></path>
                            <path d="M85.7510558,0.257581673 C81.0593307,7.5883506 77.8339243,18.1445259 77.8339243,30.166745 C77.8339243,50.9857769 87.2170996,67.9930398 98.9462749,69.4590837 C100.119275,63.5946335 100.705637,57.7299084 100.705637,51.2790956 C100.705637,31.6327888 95.1342311,13.4528008 85.7510558,0.257581673 Z" id="Shape"></path>
                        </g>
                        <rect id="Rectangle-path" fill="#3A5569" x="38.1748685" y="2.16346614" width="61.2843705" height="27.5634382"></rect>
                        <g id="Group" transform="translate(28.864542, 10.446215)" fill="#F6F7F8">
                            <circle id="Oval" cx="23.0921833" cy="23.0924582" r="22.8717131"></circle>
                            <ellipse id="Oval" cx="57.1064343" cy="23.0924582" rx="22.8717131" ry="22.8717131"></ellipse>
                        </g>
                        <ellipse id="Oval" fill="#2FC0E9" cx="86.2642948" cy="33.5386733" rx="13.7815817" ry="13.7815817"></ellipse>
                        <circle id="Oval" fill="#341F13" cx="86.2642948" cy="33.5386733" r="6.74413147"></circle>
                        <ellipse id="Oval" fill="#FFFFFF" cx="91.2490637" cy="29.7269044" rx="3.81204382" ry="3.81204382"></ellipse>
                        <ellipse id="Oval" fill="#2FC0E9" cx="51.6634064" cy="33.5386733" rx="13.7815817" ry="13.7815817"></ellipse>
                        <ellipse id="Oval" fill="#341F13" cx="51.6634064" cy="33.5386733" rx="6.74413147" ry="6.74413147"></ellipse>
                        <ellipse id="Oval" fill="#FFFFFF" cx="56.6481753" cy="29.7269044" rx="3.81204382" ry="3.81204382"></ellipse>
                        <path d="M71.0163944,23.2758167 L106.496964,1.87014741 C106.496964,1.87014741 80.6928884,-8.09966534 69.2570319,17.9977291 C57.5278566,-8.09939044 32.0170996,1.87014741 32.0170996,1.87014741 L67.4976693,23.2758167 L68.9637131,24.4488167 L71.0163944,23.2758167 Z" id="Shape" fill="#DFE5E4"></path>
                        <path d="M68.9637131,37.3507171 C64.8586255,35.2980359 54.8888127,46.1475299 59.5805378,47.9068924 C64.2722629,49.9595737 68.9637131,64.0344741 68.9637131,64.0344741 C68.9637131,64.0344741 73.6554382,49.9595737 78.3468884,47.9068924 C83.0386135,46.1475299 73.0690757,35.2980359 68.9637131,37.3507171 Z" id="Shape" fill="#F16D6E"></path>
                        <path d="M4.45393625,115.349032 L13.8371116,105.965857 C13.8371116,105.965857 32.8967809,109.191263 39.3478685,107.4319 C45.5056375,105.672538 66.0316255,103.913175 68.9637131,114.762669 L68.9637131,132.356295 L67.4976693,134.408976 L56.6481753,128.83757 L4.45366135,117.401713 L4.45366135,115.349032 L4.45393625,115.349032 Z" id="Shape" fill="#E6EEEE"></path>
                        <path d="M68.9637131,137.927701 C62.8059442,137.927701 58.9939004,133.529295 57.5278566,131.18357 L0.0555298805,120.334076 L1.22852988,115.055988 L61.0468566,126.491845 L61.6332191,127.664845 C61.6332191,127.664845 64.2722629,132.649614 68.963988,132.649614 L68.963988,137.927701 L68.9637131,137.927701 Z" id="Shape" fill="#53C2EF"></path>
                        <path d="M133.473765,115.349032 L124.09059,105.965857 C124.09059,105.965857 105.03092,109.191263 98.5798327,107.4319 C92.4220637,105.672538 71.8960757,103.913175 68.963988,114.762669 L68.963988,132.356295 L70.4300319,134.408976 L81.2795259,128.83757 L133.47404,117.401713 L133.47404,115.349032 L133.473765,115.349032 Z" id="Shape" fill="#D7E1E2"></path>
                        <path d="M68.9637131,137.927701 C75.1214821,137.927701 78.9335259,133.529295 80.3995697,131.18357 L137.872171,120.041032 L136.699171,114.762944 L76.8808446,126.198801 L76.2944821,127.371801 C76.2944821,127.371801 73.6554382,132.35657 68.9637131,132.35657 L68.9637131,137.927701 L68.9637131,137.927701 Z" id="Shape" fill="#53C2EF"></path>
                    </g>
                </g>
            </g>
        </g>
    </g>
</svg>