<?xml version="1.0" encoding="UTF-8" standalone="no"?>
<svg width="31px" height="27px" viewBox="0 0 31 27" version="1.1" xmlns="http://www.w3.org/2000/svg" xmlns:xlink="http://www.w3.org/1999/xlink">
    <!-- Generator: Sketch 41.2 (35397) - http://www.bohemiancoding.com/sketch -->
    <title>Profile</title>
    <desc>Created with Sketch.</desc>
    <defs></defs>
    <g id="Page-1" stroke="none" stroke-width="1" fill="none" fill-rule="evenodd">
        <g id="T.Profile" transform="translate(-39.000000, -245.000000)" fill="#00BBE5">
            <g id="Profile" transform="translate(39.000000, 245.000000)">
                <rect id="Rectangle-path" x="23.2096354" y="19.305931" width="1.77152083" height="4.36375862"></rect>
                <ellipse id="Oval" cx="24.0957187" cy="17.7861724" rx="1.03882292" ry="0.99837931"></ellipse>
                <path d="M24.0434063,13.8534828 C22.0926667,13.8534828 20.3379375,14.6538621 19.0992292,15.9241034 L18.7543542,15.7714138 L17.1568854,14.4772759 L14.4114479,17.1012414 L11.6592292,14.4772759 L10.0617604,15.7714138 L6.73604167,17.243069 C6.24423958,17.4370345 5.80765625,17.7728276 5.51509375,18.2448621 L0,25.8504828 L20.3866979,25.8591724 C21.4436042,26.5121379 22.6968438,26.8954138 24.0434063,26.8954138 C27.7847188,26.8954138 30.8285313,23.9697931 30.8285313,20.3741379 C30.8282083,16.7787931 27.7847188,13.8534828 24.0434063,13.8534828 L24.0434063,13.8534828 Z M24.0434062,24.9635172 C21.4103437,24.9635172 19.2684375,22.9046897 19.2684375,20.3744483 C19.2684375,17.8445172 21.4103437,15.786 24.0434062,15.786 C26.6758229,15.786 28.8177292,17.8445172 28.8177292,20.3744483 C28.8177292,22.9046897 26.6758229,24.9635172 24.0434062,24.9635172 L24.0434062,24.9635172 Z" id="Shape"></path>
                <path d="M14.3898125,14.7932069 L14.3898125,14.7941379 C14.3923958,14.7941379 14.3962708,14.7935172 14.3991771,14.7935172 C14.4004687,14.7935172 14.4030521,14.7941379 14.4056354,14.7941379 L14.4075729,14.7941379 L14.4101562,14.7941379 C14.4120938,14.7941379 14.4146771,14.7935172 14.4166146,14.7935172 C14.4198438,14.7935172 14.4230729,14.7941379 14.4259792,14.7941379 L14.4259792,14.7932069 C18.3022708,14.85 20.6585938,11.5892069 20.719625,6.21341379 C20.7586979,2.484 18.352,0.35162069 14.4327604,0.25137931 L14.4327604,0.249827586 C14.4263021,0.249827586 14.4221042,0.250137931 14.4162917,0.250137931 L14.4162917,0.249827586 C14.4124167,0.249827586 14.4098333,0.249827586 14.4075729,0.250137931 C14.4049896,0.249827586 14.4017604,0.249827586 14.3995,0.249827586 L14.3995,0.250137931 C14.3930417,0.250137931 14.3888437,0.249827586 14.3836771,0.249827586 L14.3836771,0.25137931 C10.4637917,0.351931034 8.05709375,2.48431034 8.09616667,6.21372414 C8.15655208,11.5892069 10.512875,14.85 14.3898125,14.7932069 L14.3898125,14.7932069 Z" id="Shape"></path>
            </g>
        </g>
    </g>
</svg>