<?xml version="1.0" standalone="no"?>
<!DOCTYPE svg PUBLIC "-//W3C//DTD SVG 20010904//EN"
 "http://www.w3.org/TR/2001/REC-SVG-20010904/DTD/svg10.dtd">
<svg version="1.0" xmlns="http://www.w3.org/2000/svg"
 width="16.000000pt" height="16.000000pt" viewBox="0 0 16.000000 16.000000"
 preserveAspectRatio="xMidYMid meet">
<metadata>
Created by potrace 1.11, written by Peter Selinger 2001-2013
</metadata>
<g transform="translate(0.000000,16.000000) scale(0.002286,-0.002286)"
fill="#000000" stroke="none">
<path d="M3290 6994 c-19 -2 -87 -9 -150 -15 -647 -61 -1294 -326 -1825 -746
-141 -111 -437 -407 -548 -548 -413 -521 -662 -1120 -744 -1785 -24 -200 -24
-600 0 -800 82 -665 331 -1264 744 -1785 111 -141 407 -437 548 -548 521 -413
1120 -662 1785 -744 200 -24 600 -24 800 0 665 82 1264 331 1785 744 141 111
437 407 548 548 413 521 662 1120 744 1785 24 200 24 600 0 800 -82 665 -331
1264 -744 1785 -111 141 -407 437 -548 548 -518 410 -1123 663 -1775 742 -126
15 -542 28 -620 19z m-533 -2364 c310 -28 516 -128 751 -368 l113 -115 36 44
c160 194 389 345 614 403 168 44 239 48 779 44 562 -4 562 -4 633 -73 62 -60
73 -182 24 -257 -31 -47 -114 -85 -212 -97 -114 -14 -2046 -476 -2055 -492 -5
-7 -13 -58 -20 -113 -6 -56 -13 -108 -14 -116 -1 -8 -8 5 -14 30 -83 314 -249
522 -495 620 -150 60 -177 62 -727 69 l-505 6 -58 28 c-78 39 -110 87 -110
165 0 115 62 197 168 223 46 11 965 10 1092 -1z m-123 -865 c92 -25 175 -72
233 -132 90 -92 128 -187 143 -363 13 -151 13 -1081 0 -1173 -24 -167 -128
-245 -272 -203 -63 18 -102 52 -132 116 -20 44 -21 59 -23 625 -3 605 -4 614
-47 663 -50 57 -48 57 -491 62 l-410 5 -47 27 c-127 75 -117 296 17 365 54 28
127 32 550 28 345 -4 431 -7 479 -20z m2971 2 c87 -39 128 -104 127 -202 -1
-98 -48 -164 -135 -190 -41 -12 -120 -15 -408 -15 -221 0 -378 -4 -409 -11
-67 -14 -105 -47 -119 -103 -7 -31 -11 -220 -11 -588 0 -597 -3 -628 -59 -698
-45 -56 -86 -75 -162 -75 -84 0 -137 32 -174 104 -42 83 -47 182 -43 786 4
523 5 554 25 627 12 42 34 100 48 129 52 102 173 196 295 229 84 23 195 28
590 26 355 -1 399 -3 435 -19z"/>
</g>
</svg>
